<?xml version="1.0" encoding="UTF-8" standalone="no"?>
<!-- Generator: Adobe Illustrator 19.0.0, SVG Export Plug-In . SVG Version: 6.00 Build 0)  -->

<svg
   xmlns:dc="http://purl.org/dc/elements/1.1/"
   xmlns:cc="http://creativecommons.org/ns#"
   xmlns:rdf="http://www.w3.org/1999/02/22-rdf-syntax-ns#"
   xmlns:svg="http://www.w3.org/2000/svg"
   xmlns="http://www.w3.org/2000/svg"
   xmlns:xlink="http://www.w3.org/1999/xlink"
   xmlns:sodipodi="http://sodipodi.sourceforge.net/DTD/sodipodi-0.dtd"
   xmlns:inkscape="http://www.inkscape.org/namespaces/inkscape"
   version="1.1"
   id="Capa_1"
   x="0px"
   y="0px"
   viewBox="0 0 128 128"
   xml:space="preserve"
   sodipodi:docname="gpu-fan-control.svg"
   inkscape:version="0.92.5 (2060ec1f9f, 2020-04-08)"
   inkscape:export-filename="/home/nick/gpu-fan-control/resources/icons/apps/16/gpu-fan-control.png"
   inkscape:export-xdpi="12"
   inkscape:export-ydpi="12"
   width="128"
   height="128"><metadata
   id="metadata95"><rdf:RDF><cc:Work
       rdf:about=""><dc:format>image/svg+xml</dc:format><dc:type
         rdf:resource="http://purl.org/dc/dcmitype/StillImage" /><dc:title></dc:title></cc:Work></rdf:RDF></metadata><defs
   id="defs93"><linearGradient
     inkscape:collect="always"
     id="linearGradient2247"><stop
       style="stop-color:#37931c;stop-opacity:1"
       offset="0"
       id="stop2243" /><stop
       style="stop-color:#37c91c;stop-opacity:1"
       offset="1"
       id="stop2245" /></linearGradient><linearGradient
     inkscape:collect="always"
     xlink:href="#linearGradient2247"
     id="linearGradient2249"
     x1="13.699422"
     y1="42.465359"
     x2="57.762566"
     y2="13.650759"
     gradientUnits="userSpaceOnUse" /><linearGradient
     id="linearGradient18943-8"><stop
       stop-color="#ffffff"
       id="stop18945-8"
       offset="0" /><stop
       stop-color="#ffffff"
       stop-opacity="0"
       id="stop18947-2"
       offset="1" /></linearGradient><linearGradient
     xlink:href="#linearGradient18943-8"
     id="linearGradient3534"
     x1="-1.32094"
     y1="-51.921707"
     x2="121.12959"
     y2="120.43117"
     gradientTransform="scale(0.98888213,1.0112429)"
     gradientUnits="userSpaceOnUse" /><linearGradient
     id="2"><stop
       stop-color="#2e3436"
       id="D" /><stop
       stop-opacity="0"
       stop-color="#2e3436"
       offset="1"
       id="E" /></linearGradient><linearGradient
     id="3"><stop
       stop-color="#eeeeec"
       id="F" /><stop
       stop-opacity="0"
       stop-color="#eeeeec"
       offset="1"
       id="G" /></linearGradient><linearGradient
     id="4"><stop
       stop-opacity="0.8"
       stop-color="#fff"
       id="H" /><stop
       stop-opacity="0"
       stop-color="#fff"
       offset="1"
       id="I" /></linearGradient><radialGradient
     gradientTransform="matrix(1,0,0,0.1455399,0,39.255173)"
     gradientUnits="userSpaceOnUse"
     xlink:href="#2"
     id="5"
     r="23.08"
     cy="45.941002"
     cx="24.377001" /><linearGradient
     gradientUnits="userSpaceOnUse"
     xlink:href="#4"
     id="6"
     y2="43.780998"
     x2="0"
     y1="4.2189999" /><linearGradient
     gradientTransform="matrix(1.1178982,0,0,1.1178982,-2.5698894,-2.7830866)"
     gradientUnits="userSpaceOnUse"
     xlink:href="#3"
     id="7"
     y2="33.905998"
     x2="15.298"
     y1="-74.991997"
     x1="-8.9230003" /><linearGradient
     y2="1"
     x2="0"
     y1="0"
     x1="0"
     id="hexchatGradient"><stop
       style="stop-color: #FFD600"
       offset="0"
       id="hgYellowStop" /><stop
       style="stop-color: #FF2600"
       offset="1"
       id="hgRedStop" /></linearGradient><linearGradient
     id="linearGradient3819"><stop
       offset="0"
       style="stop-color:#000000;stop-opacity:1"
       id="stop3821" /><stop
       offset="1"
       style="stop-color:#000000;stop-opacity:0"
       id="stop3823" /></linearGradient><linearGradient
     id="linearGradient3756"><stop
       offset="0"
       style="stop-color:#dbff9a;stop-opacity:1"
       id="stop3758" /><stop
       offset="0.17644246"
       style="stop-color:#dfffa7;stop-opacity:1"
       id="stop3772" /><stop
       offset="0.29336214"
       style="stop-color:#c1ff53;stop-opacity:1"
       id="stop3774" /><stop
       offset="0.49318853"
       style="stop-color:#82c50c;stop-opacity:1"
       id="stop3776" /><stop
       offset="0.75466347"
       style="stop-color:#609501;stop-opacity:1"
       id="stop3764" /><stop
       offset="1"
       style="stop-color:#7cbf06;stop-opacity:1"
       id="stop3760" /></linearGradient><linearGradient
     gradientTransform="scale(1.0058652,0.994169)"
     gradientUnits="userSpaceOnUse"
     id="ButtonShadow"
     y2="7.0165396"
     x2="45.447727"
     y1="92.539597"
     x1="45.447727"><stop
       offset="0"
       style="stop-color:#000000;stop-opacity:1"
       id="stop3750" /><stop
       offset="1"
       style="stop-color:#000000;stop-opacity:0.58823532"
       id="stop3752" /></linearGradient><linearGradient
     id="linearGradient3700"><stop
       offset="0"
       style="stop-color:#222222;stop-opacity:1"
       id="stop3702" /><stop
       offset="1"
       style="stop-color:#333333;stop-opacity:1"
       id="stop3704" /></linearGradient><filter
     id="filter3174"
     style="color-interpolation-filters:sRGB"><feGaussianBlur
       stdDeviation="1.71"
       id="feGaussianBlur3176" /></filter><filter
     id="filter3794"
     height="1.3839999"
     width="1.3839999"
     y="-0.192"
     x="-0.192"
     style="color-interpolation-filters:sRGB"><feGaussianBlur
       stdDeviation="5.28"
       id="feGaussianBlur3796" /></filter><linearGradient
     gradientUnits="userSpaceOnUse"
     xlink:href="#linearGradient18943-8"
     id="linearGradient3613"
     y2="138.66119"
     x2="48"
     y1="20.220806"
     x1="48" /><radialGradient
     gradientTransform="matrix(1.1573129,0,0,0.99590774,-7.5510206,0.19713193)"
     gradientUnits="userSpaceOnUse"
     xlink:href="#linearGradient18943-8"
     id="radialGradient3619"
     fy="90.171875"
     fx="48"
     r="42"
     cy="90.171875"
     cx="48" /><clipPath
     id="clipPath3613"><rect
       style="fill:#ffffff;fill-opacity:1;fill-rule:nonzero;stroke:none"
       id="rect3615"
       y="6"
       x="6"
       ry="6"
       rx="6"
       height="84"
       width="84" /></clipPath><linearGradient
     gradientUnits="userSpaceOnUse"
     xlink:href="#linearGradient3700"
     id="linearGradient3617"
     y2="5.9877172"
     x2="48"
     y1="90"
     x1="48" /><linearGradient
     gradientUnits="userSpaceOnUse"
     xlink:href="#linearGradient3756"
     id="linearGradient3762"
     y2="90.001488"
     x2="65.928574"
     y1="6"
     x1="65.928574" /><filter
     id="filter3795"
     style="color-interpolation-filters:sRGB"><feGaussianBlur
       stdDeviation="1.215"
       id="feGaussianBlur3797" /></filter><clipPath
     id="clipPath3805"><rect
       style="fill:#ffffff;fill-opacity:1;stroke:none"
       id="rect3807"
       y="28.31978"
       x="7.8286824"
       ry="4.4196429"
       rx="6"
       height="41.668793"
       width="80.307129" /></clipPath><linearGradient
     gradientTransform="matrix(0.66666667,0,0,1,-13.666667,0)"
     gradientUnits="userSpaceOnUse"
     xlink:href="#linearGradient3819"
     id="linearGradient3825"
     y2="48"
     x2="-35"
     y1="48"
     x1="-41" /><linearGradient
     gradientTransform="matrix(0.50000001,0,0,1,61.499999,0)"
     gradientUnits="userSpaceOnUse"
     xlink:href="#linearGradient18943-8"
     id="linearGradient3829"
     y2="48"
     x2="-35"
     y1="48"
     x1="-41" /><linearGradient
     gradientUnits="userSpaceOnUse"
     xlink:href="#linearGradient18943-8"
     id="linearGradient3868"
     y2="63.893143"
     x2="36.357143"
     y1="6"
     x1="36.357143" /><linearGradient
     gradientTransform="matrix(1.0058652,0,0,0.994169,100,0)"
     gradientUnits="userSpaceOnUse"
     id="ButtonShadow-0"
     y2="7.0165396"
     x2="45.447727"
     y1="92.539597"
     x1="45.447727"><stop
       offset="0"
       style="stop-color:#000000;stop-opacity:1"
       id="stop3750-8" /><stop
       offset="1"
       style="stop-color:#000000;stop-opacity:0.58823532"
       id="stop3752-5" /></linearGradient><linearGradient
     gradientTransform="matrix(1.0238095,0,0,1.0119048,-1.1428571,-98.071429)"
     gradientUnits="userSpaceOnUse"
     xlink:href="#ButtonShadow-0"
     id="linearGradient3780"
     y2="90.238609"
     x2="32.251034"
     y1="6.1317081"
     x1="32.251034" /><linearGradient
     gradientTransform="translate(0,-97)"
     gradientUnits="userSpaceOnUse"
     xlink:href="#ButtonShadow-0"
     id="linearGradient3721"
     y2="90.238609"
     x2="32.251034"
     y1="6.1317081"
     x1="32.251034" /><linearGradient
     inkscape:collect="always"
     xlink:href="#ButtonShadow-0"
     id="linearGradient1860"
     gradientUnits="userSpaceOnUse"
     gradientTransform="matrix(1.0238095,0,0,1.0119048,-1.1428571,-98.071429)"
     x1="32.251034"
     y1="6.1317081"
     x2="32.251034"
     y2="90.238609" /><linearGradient
     inkscape:collect="always"
     xlink:href="#ButtonShadow-0"
     id="linearGradient1862"
     gradientUnits="userSpaceOnUse"
     gradientTransform="matrix(1.0238095,0,0,1.0119048,-1.1428571,-98.071429)"
     x1="32.251034"
     y1="6.1317081"
     x2="32.251034"
     y2="90.238609" /><linearGradient
     inkscape:collect="always"
     xlink:href="#ButtonShadow-0"
     id="linearGradient1864"
     gradientUnits="userSpaceOnUse"
     gradientTransform="matrix(1.0238095,0,0,1.0119048,-1.1428571,-98.071429)"
     x1="32.251034"
     y1="6.1317081"
     x2="32.251034"
     y2="90.238609" /><linearGradient
     inkscape:collect="always"
     xlink:href="#linearGradient18943-8"
     id="linearGradient1866"
     gradientUnits="userSpaceOnUse"
     x1="36.357143"
     y1="6"
     x2="36.357143"
     y2="63.893143" /><linearGradient
     inkscape:collect="always"
     xlink:href="#linearGradient3756"
     id="linearGradient1940"
     x1="17.558472"
     y1="4.4324689"
     x2="32.059776"
     y2="43.050083"
     gradientUnits="userSpaceOnUse" /></defs><sodipodi:namedview
   pagecolor="#ffffff"
   bordercolor="#666666"
   borderopacity="1"
   objecttolerance="10"
   gridtolerance="10"
   guidetolerance="10"
   inkscape:pageopacity="0"
   inkscape:pageshadow="2"
   inkscape:window-width="1920"
   inkscape:window-height="1023"
   id="namedview91"
   showgrid="false"
   inkscape:zoom="5.6568545"
   inkscape:cx="26.190531"
   inkscape:cy="59.499999"
   inkscape:window-x="0"
   inkscape:window-y="33"
   inkscape:window-maximized="1"
   inkscape:current-layer="Capa_1" />
<g
   id="g1858"
   transform="matrix(0.64896165,0,0,0.64896165,-1.3187229,66.353458)"
   style="display:none"><g
     style="display:none"
     id="layer2"><rect
       style="opacity:0.9;fill:url(#ButtonShadow);fill-opacity:1;fill-rule:nonzero;stroke:none;filter:url(#filter3174)"
       id="rect3745"
       y="7"
       x="5"
       ry="6"
       rx="6"
       height="85"
       width="86" /></g><g
     style="display:inline"
     id="layer4"><path
       style="display:inline;opacity:0.07999998;fill:url(#linearGradient1860);fill-opacity:1;fill-rule:nonzero;stroke:none"
       id="path3786"
       transform="scale(1,-1)"
       d="m 12,-95.03125 c -5.5110903,0 -10.03125,4.52016 -10.03125,10.03125 v 71 c 0,5.5110902 4.5201598,10.03125 10.03125,10.03125 h 72 c 5.51109,0 10.03125,-4.5201597 10.03125,-10.03125 v -71 c 0,-5.51109 -4.52016,-10.03125 -10.03125,-10.03125 z"
       inkscape:connector-curvature="0" /><path
       style="display:inline;opacity:0.1;fill:url(#linearGradient1862);fill-opacity:1;fill-rule:nonzero;stroke:none"
       id="path3778"
       transform="scale(1,-1)"
       d="m 12,-94.03125 c -4.971633,0 -9.03125,4.059617 -9.03125,9.03125 v 71 c 0,4.9716329 4.0596171,9.03125 9.03125,9.03125 h 72 c 4.971633,0 9.03125,-4.059617 9.03125,-9.03125 v -71 c 0,-4.971633 -4.059617,-9.03125 -9.03125,-9.03125 z"
       inkscape:connector-curvature="0" /><path
       style="display:inline;opacity:0.2;fill:url(#linearGradient1864);fill-opacity:1;fill-rule:nonzero;stroke:none"
       id="path3770"
       transform="scale(1,-1)"
       d="m 12,-93 c -4.4091333,0 -8,3.590867 -8,8 v 71 c 0,4.4091333 3.5908667,8 8,8 h 72 c 4.409133,0 8,-3.5908667 8,-8 v -71 c 0,-4.409133 -3.590867,-8 -8,-8 z"
       inkscape:connector-curvature="0" /><rect
       style="display:inline;opacity:0.3;fill:url(#linearGradient3780);fill-opacity:1;fill-rule:nonzero;stroke:none"
       id="rect3723"
       transform="scale(1,-1)"
       y="-92"
       x="5"
       ry="7"
       rx="7"
       height="85"
       width="86" /><rect
       style="display:inline;opacity:0.45;fill:url(#linearGradient3721);fill-opacity:1;fill-rule:nonzero;stroke:none"
       id="rect3716"
       transform="scale(1,-1)"
       y="-91"
       x="6"
       ry="6"
       rx="6"
       height="84"
       width="84" /></g><g
     style="display:inline"
     id="layer1-3"><rect
       style="fill:url(#linearGradient3617);fill-opacity:1;fill-rule:nonzero;stroke:none"
       id="rect2419"
       y="6"
       x="6"
       ry="6"
       rx="6"
       height="84"
       width="84" /></g><g
     id="layer3"
     style="display:inline"><path
       style="display:none;fill:#000000;fill-opacity:1;fill-rule:nonzero;stroke-width:0;stroke-linecap:butt;stroke-linejoin:miter;stroke-miterlimit:10;filter:url(#filter3795)"
       id="path3782"
       clip-path="url(#clipPath3805)"
       inkscape:connector-curvature="0"
       d="m 41.09375,56.75 v 3.6875 c -11.89843,-2.121273 -15.1875,-14.5 -15.1875,-14.5 0,0 5.69928,-6.317742 15.1875,-7.34375 V 42.625 c -4.97993,-0.597616 -8.875,4.0625 -8.875,4.0625 0,0 2.16678,7.808667 8.875,10.0625 z m 0,-22.8125 c 0.45315,-0.03165 0.90869,-0.04777 1.375,-0.0625 12.75082,-0.4005 21.125,10.9375 21.125,10.9375 0,0 -9.0309,12.5625 -18.71875,12.5625 -1.39423,0 -2.65621,-0.24675 -3.78125,-0.625 V 42.625 c 4.96395,0.59981 5.98443,2.806334 8.96875,7.78125 l 6.625,-5.625 c 0,0 -4.83237,-6.34375 -13,-6.34375 -0.88844,0 -1.75984,0.06693 -2.59375,0.15625 z m 0,34.8125 C 19.64066,66.725249 12,44.625 12,44.625 c 0,0 13.49712,-13.216168 29.09375,-14.46875 v 3.78125 c -14.08112,1.076149 -21.125,11.46875 -21.125,11.46875 0,0 5.38139,17.362872 21.125,19.34375 z m 0,-61.75 H 84 c 3.324,0 6,2.676 6,6 v 72 c 0,3.324 -2.676,6 -6,6 H 41.09375 V 68.75 c 1.02977,0.09934 2.09662,0.1875 3.1875,0.1875 11.31711,0 31.27843,-5.797663 39.84375,-12.96875 -1.25697,-1.274205 -7.38143,-4.178827 -8.875,-5.375 -9.00844,7.77591 -18.32291,14.34375 -31.1875,14.34375 -1.0307,0 -2.01607,-0.06654 -2.96875,-0.1875 v -4.3125 c 1.11407,0.197116 2.29551,0.3125 3.5625,0.3125 13.82447,0 27.09375,-16.125 27.09375,-16.125 0,0 -11.54956,-15.160117 -29.28125,-14.5625 -0.46036,0.01567 -0.91715,0.05834 -1.375,0.09375 z" /><path
       style="display:inline;fill:url(#linearGradient3762);fill-opacity:1;fill-rule:nonzero;stroke-width:0;stroke-linecap:butt;stroke-linejoin:miter;stroke-miterlimit:10"
       id="path21"
       inkscape:connector-curvature="0"
       d="m 41.09375,6 v 23.15625 c 0.45785,-0.03541 0.91464,-0.07808 1.375,-0.09375 C 60.20044,28.464883 71.75,43.625 71.75,43.625 c 0,0 -13.26928,16.125 -27.09375,16.125 -1.26699,0 -2.44843,-0.115384 -3.5625,-0.3125 V 63.75 c 0.95268,0.120965 1.93805,0.1875 2.96875,0.1875 12.86459,0 22.17906,-6.56784 31.1875,-14.34375 1.49357,1.196173 7.61803,4.100795 8.875,5.375 -8.56532,7.171087 -28.52664,12.96875 -39.84375,12.96875 -1.09088,0 -2.15773,-0.08816 -3.1875,-0.1875 V 90 H 84 c 3.324,0 6,-2.676 6,-6 V 12 C 90,8.676 87.324,6 84,6 Z m 0,61.75 v -4 c -15.74361,-1.980878 -21.125,-19.34375 -21.125,-19.34375 0,0 7.04388,-10.392601 21.125,-11.46875 V 29.15625 C 25.49712,30.408832 12,43.625 12,43.625 c 0,0 7.64066,22.100249 29.09375,24.125 z m 0,-34.8125 v 4.65625 c 0.83391,-0.08932 1.70531,-0.15625 2.59375,-0.15625 8.16763,0 13,6.34375 13,6.34375 l -6.625,5.625 C 47.07818,44.431334 46.0577,42.22481 41.09375,41.625 V 55.75 c 1.12504,0.37825 2.38702,0.625 3.78125,0.625 9.68785,0 18.71875,-12.5625 18.71875,-12.5625 0,0 -8.37418,-11.338 -21.125,-10.9375 -0.46631,0.01473 -0.92185,0.03085 -1.375,0.0625 z m 0,22.8125 c -6.70822,-2.253833 -8.875,-10.0625 -8.875,-10.0625 0,0 3.89507,-4.660116 8.875,-4.0625 v -4.03125 c -9.48822,1.026008 -15.1875,7.34375 -15.1875,7.34375 0,0 3.28907,12.378727 15.1875,14.5 z" /><path
       style="display:inline;opacity:0.6;fill:#ffffff;fill-opacity:1;fill-rule:nonzero;stroke-width:0;stroke-linecap:butt;stroke-linejoin:miter;stroke-miterlimit:10"
       id="path3766"
       inkscape:connector-curvature="0"
       d="M 41.09375,29.15625 C 25.49712,30.408832 12,43.625 12,43.625 c 0,0 0.133774,0.377176 0.28125,0.75 1.391896,-1.321508 14.088333,-13.036236 28.8125,-14.21875 z m 1.375,3.71875 c -0.46631,0.01473 -0.92185,0.03085 -1.375,0.0625 v 1 c 0.45315,-0.03165 0.90869,-0.04777 1.375,-0.0625 11.156968,-0.350437 18.972802,8.272812 20.75,10.4375 0.233108,-0.302786 0.375,-0.5 0.375,-0.5 0,0 -8.37418,-11.338 -21.125,-10.9375 z m -1.375,4.71875 c -9.48822,1.026008 -15.1875,7.34375 -15.1875,7.34375 0,0 0.06756,0.30706 0.21875,0.75 1.09829,-1.114652 6.527506,-6.180957 14.96875,-7.09375 z m 0,4.03125 v 1 c 4.96395,0.59981 5.98443,2.806334 8.96875,7.78125 l 6.625,-5.625 c 0,0 -0.198936,-0.260014 -0.5,-0.59375 l -6.125,5.21875 C 47.07818,44.431334 46.0577,42.22481 41.09375,41.625 Z m 30.25,2.46875 C 69.356619,46.396591 57.300732,59.75 44.65625,59.75 c -1.26699,0 -2.44843,-0.115384 -3.5625,-0.3125 v 1 c 1.11407,0.197116 2.29551,0.3125 3.5625,0.3125 13.82447,0 27.09375,-16.125 27.09375,-16.125 0,0 -0.185185,-0.264221 -0.40625,-0.53125 z m -51.15625,1 c -0.103144,0.139838 -0.21875,0.3125 -0.21875,0.3125 0,0 5.38139,17.362872 21.125,19.34375 v -1 C 27.145896,61.995066 21.332513,48.225438 20.1875,45.09375 Z m 12.28125,1.34375 c -0.05952,0.06661 -0.25,0.25 -0.25,0.25 0,0 2.16678,7.808667 8.875,10.0625 v -1 c -5.49314,-1.845589 -7.918431,-7.355105 -8.625,-9.3125 z m 51.03125,9 c -8.861762,6.948918 -28.154254,12.5 -39.21875,12.5 -1.09088,0 -2.15773,-0.08816 -3.1875,-0.1875 v 1 c 1.02977,0.09934 2.09662,0.1875 3.1875,0.1875 11.31711,0 31.27843,-5.797663 39.84375,-12.96875 C 83.979935,55.821696 83.760126,55.622853 83.5,55.4375 Z" /><path
       style="display:none;opacity:0.6;fill:url(#linearGradient3829);fill-opacity:1;stroke:none"
       id="rect3827"
       inkscape:connector-curvature="0"
       d="m 41.09375,6 v 23.15625 c 0.45785,-0.03541 0.91464,-0.07808 1.375,-0.09375 0.512295,-0.01727 1.029405,-0.0083 1.53125,0 V 6 Z m 0,23.15625 c -0.03076,0.0025 -0.063,-0.0026 -0.09375,0 v 3.78125 c 0.03108,-0.0025 0.0626,0.0024 0.09375,0 z m 0,3.78125 v 4.65625 c 0.83391,-0.08932 1.70531,-0.15625 2.59375,-0.15625 0.106165,0 0.207465,-0.0021 0.3125,0 v -4.53125 c -0.502494,-0.02084 -1.01409,-0.04749 -1.53125,-0.03125 -0.46631,0.01473 -0.92185,0.03085 -1.375,0.0625 z m 0,4.65625 c -0.03168,0.0034 -0.06216,-0.0035 -0.09375,0 V 41.625 c 0.03196,0.0034 0.06171,-0.0038 0.09375,0 z m 0,4.03125 V 55.75 c 0.886356,0.298002 1.852191,0.51535 2.90625,0.59375 v -14 C 43.191754,42.009628 42.261633,41.766119 41.09375,41.625 Z m 0,14.125 C 41.06237,55.739457 41.031181,55.729535 41,55.71875 v 3.6875 c 0.03256,0.006 0.06106,0.02542 0.09375,0.03125 z m 0,3.6875 V 63.75 C 42.026617,63.868449 42.992577,63.934795 44,63.9375 V 59.71875 C 42.983009,59.68587 42.009586,59.599542 41.09375,59.4375 Z m 0,4.3125 C 41.06239,63.7461 41.03128,63.7541 41,63.75 v 4 c 0.03136,0.0031 0.06233,-0.003 0.09375,0 z m 0,4 V 90 H 44 V 67.9375 C 43.007267,67.92411 42.034537,67.84076 41.09375,67.75 Z" /><rect
       style="opacity:0.6;fill:url(#linearGradient3825);fill-opacity:1;stroke:none"
       id="rect3809"
       transform="scale(-1,1)"
       y="6"
       x="-41"
       height="84"
       width="4" /></g><g
     style="display:inline"
     id="layer5-6"><rect
       style="opacity:0.1;fill:url(#linearGradient3613);fill-opacity:1;fill-rule:nonzero;stroke:#ffffff;stroke-width:0.5;stroke-linecap:round;stroke-linejoin:miter;stroke-miterlimit:4;stroke-dasharray:none;stroke-dashoffset:0;stroke-opacity:1;filter:url(#filter3794)"
       id="rect3171"
       clip-path="url(#clipPath3613)"
       y="15"
       x="15"
       ry="12"
       rx="12"
       height="66"
       width="66" /><path
       style="display:inline;opacity:0.2;fill:url(#linearGradient1866);fill-opacity:1;fill-rule:nonzero;stroke:none"
       id="rect3728"
       inkscape:connector-curvature="0"
       d="M 12,6 C 8.676,6 6,8.676 6,12 v 2 68 2 c 0,0.334721 0.04135,0.6507 0.09375,0.96875 0.0487,0.295596 0.09704,0.596915 0.1875,0.875 0.0099,0.03038 0.02089,0.0636 0.03125,0.09375 0.09886,0.287771 0.23488,0.547452 0.375,0.8125 0.144592,0.273507 0.315616,0.535615 0.5,0.78125 0.184384,0.245635 0.373776,0.473472 0.59375,0.6875 0.439947,0.428056 0.94291,0.814526 1.5,1.09375 0.278545,0.139612 0.573473,0.246947 0.875,0.34375 -0.256202,-0.100222 -0.486711,-0.236272 -0.71875,-0.375 -0.0074,-0.0044 -0.02387,0.0045 -0.03125,0 -0.03193,-0.0193 -0.06229,-0.04251 -0.09375,-0.0625 -0.120395,-0.0767 -0.231023,-0.163513 -0.34375,-0.25 -0.106173,-0.0808 -0.213281,-0.161112 -0.3125,-0.25 C 8.47832,88.557317 8.30879,88.373362 8.15625,88.1875 8.048671,88.057245 7.937856,87.922215 7.84375,87.78125 7.81866,87.74287 7.8053,87.69538 7.78125,87.65625 7.71649,87.553218 7.651022,87.451733 7.59375,87.34375 7.492742,87.149044 7.388075,86.928049 7.3125,86.71875 7.3045,86.69694 7.28891,86.6782 7.28125,86.65625 7.24942,86.5643 7.24545,86.469419 7.21875,86.375 7.188418,86.268382 7.148361,86.171969 7.125,86.0625 7.052121,85.720988 7,85.364295 7,85 V 83 15 13 C 7,10.218152 9.218152,8 12,8 h 2 68 2 c 2.781848,0 5,2.218152 5,5 v 2 68 2 c 0,0.364295 -0.05212,0.720988 -0.125,1.0625 -0.04415,0.206893 -0.08838,0.397658 -0.15625,0.59375 -0.0077,0.02195 -0.0233,0.04069 -0.03125,0.0625 -0.06274,0.173739 -0.138383,0.367449 -0.21875,0.53125 -0.04158,0.0828 -0.07904,0.169954 -0.125,0.25 -0.0546,0.09721 -0.126774,0.18835 -0.1875,0.28125 -0.09411,0.140965 -0.204921,0.275995 -0.3125,0.40625 -0.143174,0.17445 -0.303141,0.346998 -0.46875,0.5 -0.01117,0.0102 -0.01998,0.02115 -0.03125,0.03125 -0.138386,0.125556 -0.285091,0.234436 -0.4375,0.34375 -0.102571,0.07315 -0.204318,0.153364 -0.3125,0.21875 -0.0074,0.0045 -0.02384,-0.0044 -0.03125,0 -0.232039,0.138728 -0.462548,0.274778 -0.71875,0.375 0.301527,-0.0968 0.596455,-0.204138 0.875,-0.34375 0.55709,-0.279224 1.060053,-0.665694 1.5,-1.09375 0.219973,-0.214028 0.409366,-0.441865 0.59375,-0.6875 0.184384,-0.245635 0.355408,-0.507743 0.5,-0.78125 0.14012,-0.265048 0.276135,-0.524729 0.375,-0.8125 0.01041,-0.03078 0.02133,-0.06274 0.03125,-0.09375 0.09046,-0.278085 0.1388,-0.579404 0.1875,-0.875 C 89.95865,84.6507 90,84.334721 90,84 V 82 14 12 C 90,8.676 87.324,6 84,6 Z" /><path
       style="display:inline;opacity:0.2;fill:url(#radialGradient3619);fill-opacity:1;fill-rule:nonzero;stroke:none"
       id="path3615"
       inkscape:connector-curvature="0"
       d="M 12,90 C 8.676,90 6,87.324 6,84 V 82 14 12 c 0,-0.334721 0.04135,-0.6507 0.09375,-0.96875 0.0487,-0.295596 0.09704,-0.596915 0.1875,-0.875 C 6.29113,10.12587 6.302142,10.09265 6.3125,10.0625 6.411365,9.774729 6.5473802,9.515048 6.6875,9.25 6.8320918,8.976493 7.0031161,8.714385 7.1875,8.46875 7.3718839,8.223115 7.5612765,7.995278 7.78125,7.78125 8.221197,7.353194 8.72416,6.966724 9.28125,6.6875 9.559795,6.547888 9.8547231,6.440553 10.15625,6.34375 9.9000482,6.443972 9.6695391,6.580022 9.4375,6.71875 c -0.00741,0.0044 -0.023866,-0.0045 -0.03125,0 -0.031933,0.0193 -0.062293,0.04251 -0.09375,0.0625 -0.120395,0.0767 -0.2310226,0.163513 -0.34375,0.25 -0.1061728,0.0808 -0.2132809,0.161112 -0.3125,0.25 C 8.4783201,7.442683 8.3087904,7.626638 8.15625,7.8125 8.0486711,7.942755 7.9378561,8.077785 7.84375,8.21875 7.818661,8.25713 7.805304,8.30462 7.78125,8.34375 7.716487,8.446782 7.6510225,8.548267 7.59375,8.65625 7.4927417,8.850956 7.3880752,9.071951 7.3125,9.28125 7.30454,9.30306 7.288911,9.3218 7.28125,9.34375 7.2494249,9.4357 7.2454455,9.530581 7.21875,9.625 7.1884177,9.731618 7.1483606,9.828031 7.125,9.9375 7.0521214,10.279012 7,10.635705 7,11 v 2 68 2 c 0,2.781848 2.2181517,5 5,5 h 2 68 2 c 2.781848,0 5,-2.218152 5,-5 V 81 13 11 C 89,10.635705 88.94788,10.279012 88.875,9.9375 88.83085,9.730607 88.78662,9.539842 88.71875,9.34375 88.71105,9.3218 88.69545,9.30306 88.6875,9.28125 88.62476,9.107511 88.549117,8.913801 88.46875,8.75 88.42717,8.6672 88.38971,8.580046 88.34375,8.5 88.28915,8.40279 88.216976,8.31165 88.15625,8.21875 88.06214,8.077785 87.951329,7.942755 87.84375,7.8125 87.700576,7.63805 87.540609,7.465502 87.375,7.3125 87.36383,7.3023 87.35502,7.29135 87.34375,7.28125 87.205364,7.155694 87.058659,7.046814 86.90625,6.9375 86.803679,6.86435 86.701932,6.784136 86.59375,6.71875 c -0.0074,-0.0045 -0.02384,0.0044 -0.03125,0 -0.232039,-0.138728 -0.462548,-0.274778 -0.71875,-0.375 0.301527,0.0968 0.596455,0.204138 0.875,0.34375 0.55709,0.279224 1.060053,0.665694 1.5,1.09375 0.219973,0.214028 0.409366,0.441865 0.59375,0.6875 0.184384,0.245635 0.355408,0.507743 0.5,0.78125 0.14012,0.265048 0.276135,0.524729 0.375,0.8125 0.01041,0.03078 0.02133,0.06274 0.03125,0.09375 0.09046,0.278085 0.1388,0.579404 0.1875,0.875 C 89.95865,11.3493 90,11.665279 90,12 v 2 68 2 c 0,3.324 -2.676,6 -6,6 z" /><path
       style="display:inline;opacity:0.5;fill:url(#linearGradient3868);fill-opacity:1;fill-rule:nonzero;stroke:none"
       id="path3872"
       inkscape:connector-curvature="0"
       d="m 41,6 v 2 h 41 2 c 2.781848,0 5,2.218152 5,5 v 2 68 2 c 0,0.364295 -0.05212,0.720988 -0.125,1.0625 -0.04415,0.206893 -0.08838,0.397658 -0.15625,0.59375 -0.0077,0.02195 -0.0233,0.04069 -0.03125,0.0625 -0.06274,0.173739 -0.138383,0.367449 -0.21875,0.53125 -0.04158,0.0828 -0.07904,0.169954 -0.125,0.25 -0.0546,0.09721 -0.126774,0.18835 -0.1875,0.28125 -0.09411,0.140965 -0.204921,0.275995 -0.3125,0.40625 -0.143174,0.17445 -0.303141,0.346998 -0.46875,0.5 -0.01117,0.0102 -0.01998,0.02115 -0.03125,0.03125 -0.138386,0.125556 -0.285091,0.234436 -0.4375,0.34375 -0.102571,0.07315 -0.204318,0.153364 -0.3125,0.21875 -0.0074,0.0045 -0.02384,-0.0044 -0.03125,0 -0.232039,0.138728 -0.462548,0.274778 -0.71875,0.375 0.301527,-0.0968 0.596455,-0.204138 0.875,-0.34375 0.55709,-0.279224 1.060053,-0.665694 1.5,-1.09375 0.219973,-0.214028 0.409366,-0.441865 0.59375,-0.6875 0.184384,-0.245635 0.355408,-0.507743 0.5,-0.78125 0.14012,-0.265048 0.276135,-0.524729 0.375,-0.8125 0.01041,-0.03078 0.02133,-0.06274 0.03125,-0.09375 0.09046,-0.278085 0.1388,-0.579404 0.1875,-0.875 C 89.95865,84.6507 90,84.334721 90,84 V 82 14 12 C 90,8.676 87.324,6 84,6 Z" /></g></g><g
   id="g942"
   inkscape:label="gpu"
   style="display:none"
   transform="translate(0,69)"><path
     inkscape:label="scheda"
     inkscape:connector-curvature="0"
     id="rect2"
     d="m 5.6560825,12.5 v 32 H 58.558058 v -32 z m 34.3431245,1 a 14.797756,15 0 0 1 14.797755,15 14.797756,15 0 0 1 -14.797755,15 14.797756,15 0 0 1 -14.797756,-15 14.797756,15 0 0 1 14.797756,-15 z m -31.4567916,1 a 0.96185411,1 0 0 1 0.9614688,1 0.96185411,1 0 0 1 -0.9614688,1 0.96185411,1 0 0 1 -0.9633954,-1 0.96185411,1 0 0 1 0.9633954,-1 z m 47.1293106,0 a 0.96185411,1 0 0 1 0.963395,1 0.96185411,1 0 0 1 -0.963395,1 0.96185411,1 0 0 1 -0.96147,-1 0.96185411,1 0 0 1 0.96147,-1 z m -47.1293106,26 a 0.96185411,1 0 0 1 0.9614688,1 0.96185411,1 0 0 1 -0.9614688,1 0.96185411,1 0 0 1 -0.9633954,-1 0.96185411,1 0 0 1 0.9633954,-1 z m 47.1293106,0 a 0.96185411,1 0 0 1 0.963395,1 0.96185411,1 0 0 1 -0.963395,1 0.96185411,1 0 0 1 -0.96147,-1 0.96185411,1 0 0 1 0.96147,-1 z"
     style="opacity:1;fill:url(#linearGradient2249);fill-opacity:1;stroke:none;stroke-width:0.98074162" /><rect
     inkscape:label="piedino"
     id="rect20"
     height="4"
     width="24"
     style="fill:#010000;fill-opacity:1"
     y="44.75"
     x="12.9375" /><path
     inkscape:label="staffa"
     id="rect12"
     d="m 1.3398438,7.5 c -0.54554405,0 -0.98632817,0.447 -0.98632818,1 0,0.553 0.44078413,1 0.98632818,1 H 3.3125 v 6 H 0.35351562 v 4 H 3.3125 v 8 H 0.35351562 v 13 H 3.3125 v 10 c 0,0.553 0.4407842,1 0.9863281,1 0.545544,0 0.9882813,-0.447 0.9882813,-1 v -42 c 0,-0.553 -0.4427373,-1 -0.9882813,-1 z"
     style="display:inline;fill:#010000;fill-opacity:1;stroke-width:0.99323565"
     inkscape:connector-curvature="0" /><g
     id="g956"
     inkscape:label="elica"><path
       inkscape:connector-curvature="0"
       id="path944"
       d="m 53.746247,30.207025 c 0.16386,-0.690548 -0.494336,-1.259315 -1.16768,-1.042049 -2.285784,0.740368 -5.631844,0.61997 -8.389934,-1.194275 0.02204,0.172982 0.05233,0.343198 0.05233,0.521717 0,1.804558 -1.152532,3.325426 -2.753961,3.896962 0,0 5.264194,3.887274 9.638856,4.406224 1.233775,-1.440604 2.143958,-4.590279 2.620391,-6.588579 z"
       style="fill:#010000;fill-opacity:1;stroke-width:1.38041759" /><path
       inkscape:connector-curvature="0"
       id="path946"
       d="m 26.366388,26.777811 c -0.163861,0.690547 0.494334,1.259315 1.167679,1.042048 2.285784,-0.740366 5.631844,-0.61997 8.389935,1.194275 -0.02204,-0.172982 -0.05233,-0.343197 -0.05233,-0.520332 0,-1.804559 1.152531,-3.325425 2.753959,-3.896962 0,0 -5.264193,-3.887275 -9.638856,-4.406223 -1.235152,1.439219 -2.145335,4.588894 -2.620391,6.587194 z"
       style="fill:#010000;fill-opacity:1;stroke-width:1.38041759" /><path
       inkscape:connector-curvature="0"
       id="path948"
       d="m 32.320446,39.972956 c 0.5384,0.460826 1.341179,0.1287 1.45409,-0.57292 0.381424,-2.383014 2.006261,-5.325108 4.867622,-6.970525 -0.162482,-0.0595 -0.32772,-0.109334 -0.486072,-0.189588 -1.60005,-0.819247 -2.424861,-2.542159 -2.204544,-4.236008 0,0 -5.835639,2.949013 -8.282532,6.631476 0.71603,1.758891 3.09545,4.004903 4.651436,5.337565 z"
       style="fill:#010000;fill-opacity:1;stroke-width:1.38041759" /><path
       inkscape:connector-curvature="0"
       id="path950"
       d="m 47.790812,17.01188 c -0.538401,-0.460827 -1.34118,-0.128701 -1.454093,0.57292 -0.381422,2.383014 -2.006258,5.325109 -4.867621,6.970524 0.162484,0.0595 0.327721,0.109336 0.486075,0.189589 1.600049,0.819246 2.42486,2.542159 2.204543,4.236008 0,0 5.835639,-2.949014 8.282529,-6.631477 -0.716027,-1.758891 -3.095447,-4.004903 -4.651433,-5.337564 z"
       style="fill:#010000;fill-opacity:1;stroke-width:1.38041759" /><path
       inkscape:connector-curvature="0"
       id="path952"
       d="m 45.864416,41.068976 c 0.670589,-0.22557 0.801401,-1.089101 0.26025,-1.54716 -1.836892,-1.555463 -3.508544,-4.471266 -3.438319,-7.782852 -0.133566,0.109323 -0.261626,0.22557 -0.411716,0.321056 -1.522939,0.95625 -3.417663,0.779115 -4.747825,-0.282307 0,0 -0.490205,6.545677 1.389371,10.549196 1.868563,0.289228 5.009451,-0.604748 6.948239,-1.257933 z"
       style="fill:#010000;fill-opacity:1;stroke-width:1.38041759" /><path
       inkscape:connector-curvature="0"
       id="path954"
       d="m 34.248218,15.91586 c -0.67059,0.225569 -0.801402,1.0891 -0.260249,1.547159 1.836891,1.555465 3.508544,4.471266 3.438318,7.782853 0.133567,-0.109323 0.261626,-0.22557 0.411716,-0.321056 1.52294,-0.95625 3.417663,-0.779116 4.747826,0.282308 0,0 0.490204,-6.545677 -1.389373,-10.549197 -1.869937,-0.289229 -5.00945,0.604748 -6.948238,1.257933 z"
       style="fill:#010000;fill-opacity:1;stroke-width:1.38041759" /></g></g><g
   id="g1380"
   style="display:none"
   transform="translate(0,69)"><g
     style="display:inline"
     transform="matrix(0.25169307,0,0,0.25169307,-2.1391793,-1.9792295)"
     id="g916"><title
       id="title910">Layer 1</title><g
       style="display:inline"
       id="layer1"
       display="inline" /><g
       style="display:inline"
       id="layer5"
       display="inline"><rect
         style="fill:#7f7f7f"
         id="rect17756"
         width="233.93086"
         height="232.57388"
         x="9.0460701"
         y="8.35285"
         ry="37.181026" /></g><path
       style="fill:url(#linearGradient3534)"
       inkscape:connector-curvature="0"
       d="M 48.2967,11.0146 H 205.06 c 16.07699,0.7367 23.05,7.975101 23.05,7.975101 C 112.465,101.471 45.295102,170.948 27.2507,232.564 c 0,0 -15.7948,-17.521 -15.7948,-29.96199 V 47.471402 C 10.026,27.274201 26.0671,9.46384 48.296699,11.014601 v 0 z"
       id="rect17756-0" /></g><path
     inkscape:label="elica"
     inkscape:connector-curvature="0"
     id="path30"
     d="M 30.529385,2.3592525 C 26.862271,2.3320547 21.760391,3.8292598 18.451578,4.9624187 17.143629,5.4096438 16.887467,7.122413 17.942957,8.030585 c 3.021568,2.600888 5.805587,7.123416 6.52405,12.413823 -3.556079,-2.330671 -10.304818,-6.285874 -16.2778468,-7.00613 -2.4090976,2.853471 -4.1850764,9.09749 -5.1116474,13.059425 -0.3196021,1.369115 0.9637367,2.498352 2.2770596,2.067587 3.9905531,-1.313884 9.6357806,-1.251681 14.6346086,1.35348 -3.369568,1.944383 -10.7471726,6.615481 -14.3705166,12.158489 1.3965777,3.487271 6.0381596,7.940684 9.0730266,10.58289 1.05012,0.913657 2.614361,0.255556 2.834587,-1.135513 0.635948,-4.038799 3.050515,-8.883115 7.222426,-12.2436 -0.06284,4.257452 0.196409,12.392872 2.8072,18.045713 3.644532,0.573439 9.769352,-1.198104 13.550853,-2.493144 1.307948,-0.447227 1.564107,-2.159993 0.508622,-3.068165 -3.021184,-2.600555 -5.805147,-7.122218 -6.52405,-12.411749 3.556078,2.330671 10.304818,6.285872 16.277847,7.00613 2.406411,-2.856217 4.182389,-9.099567 5.111646,-13.061501 0.3196,-1.369116 -0.963739,-2.49835 -2.27706,-2.067587 -3.991386,1.314163 -9.63892,1.253292 -14.638519,-1.35348 C 42.932829,27.934358 50.312868,23.264078 53.937714,17.718764 52.541143,14.231495 47.899554,9.7780795 44.864688,7.135876 43.814566,6.2222162 42.248375,6.8803172 42.028145,8.2713881 41.392354,12.30921 38.979683,17.152522 34.809631,20.512913 34.872399,16.255069 34.612944,8.1215128 32.002431,2.4692746 31.54653,2.397594 31.053257,2.3631377 30.529385,2.3592525 Z M 30.224212,21.60483 c 1.619491,0.113865 3.192358,0.72682 4.489563,1.779038 0,0 0.0036,-0.101969 0.0039,-0.105869 2.294609,1.798748 3.433683,4.709361 3.065423,7.587379 0,0 0.0975,-0.05386 0.101727,-0.05604 -0.345316,3.171169 -2.461281,5.779829 -5.315095,6.815147 0,0 0.0793,0.05598 0.08216,0.05813 -2.657026,1.011632 -5.62136,0.502694 -7.807341,-1.270445 0,0 -0.0036,0.103897 -0.0039,0.107942 -2.296922,-1.798525 -3.435823,-4.712074 -3.067379,-7.591531 0,0 -0.09567,0.05393 -0.09977,0.05605 0.346703,-3.169312 2.462516,-5.776121 5.315095,-6.810996 0,0 -0.0811,-0.05794 -0.08411,-0.06019 1.08069,-0.411681 2.209695,-0.586638 3.319734,-0.508593 z"
     style="fill:#53cc31;fill-opacity:1;stroke:#000000;stroke-width:0.37795275;stroke-miterlimit:4;stroke-dasharray:none;stroke-opacity:1" /></g><g
   id="1"
   transform="matrix(2.4903801,0,0,2.4903801,3.6708526,4.0295672)"
   style="display:inline"><rect
     rx="5.6857982"
     id="9"
     y="1.293804"
     x="1.4378442"
     height="45.574062"
     width="45.574062"
     style="fill:#222222;fill-opacity:1;stroke-width:1.08509672" /><path
     id="A"
     d="m 7.4911945,1.7933091 c -3.0620606,0 -5.484688,2.4226275 -5.484688,5.4846881 V 40.814944 c 0,3.062061 2.4226274,5.484688 5.484688,5.484688 H 41.028141 c 3.06206,0 5.484688,-2.422627 5.484688,-5.484688 V 7.2779972 c 0,-3.0620606 -2.422628,-5.4846881 -5.484688,-5.4846881 z"
     inkscape:connector-curvature="0"
     style="display:inline;fill:#555753;stroke-width:1.11789811" /><path
     id="C"
     d="m 7.4911945,1.7933091 c -3.0620606,0 -5.484688,2.4226275 -5.484688,5.4846881 V 26.45694 C 15.516538,20.718608 30.715078,15.759185 46.512829,12.448276 V 7.2779972 c 0,-3.0620606 -2.422628,-5.4846881 -5.484688,-5.4846881 z"
     inkscape:connector-curvature="0"
     style="display:inline;opacity:0.6;fill:url(#7);stroke-width:1.11789811" /><path
     style="fill:url(#linearGradient1940);fill-opacity:1;stroke:#000000;stroke-width:0.27970999;stroke-miterlimit:4;stroke-dasharray:none;stroke-opacity:1"
     d="m 24.912795,3.6764171 c -2.713907,-0.020128 -6.489634,1.0879023 -8.938374,1.9265146 -0.967968,0.3309761 -1.157546,1.5985383 -0.376412,2.2706455 2.236159,1.9248288 4.296516,5.2717988 4.828226,9.1870478 -2.631733,-1.72485 -7.626244,-4.651961 -12.0466801,-5.184999 -1.7828913,2.111758 -3.0972329,6.732743 -3.7829565,9.664836 -0.2365266,1.013237 0.7132288,1.848946 1.6851743,1.530151 2.9532729,-0.97236 7.1311133,-0.926326 10.8305763,1.001664 -2.493703,1.438972 -7.9536174,4.895893 -10.6351307,8.998085 1.0335597,2.580812 4.4686367,5.876631 6.7146387,7.832036 0.777158,0.676167 1.934799,0.189129 2.09778,-0.840353 0.470644,-2.988978 2.257583,-6.574092 5.345073,-9.061072 -0.04651,3.150793 0.145354,9.171542 2.077513,13.355017 2.697194,0.424384 7.229965,-0.886676 10.028524,-1.84509 0.967969,-0.330979 1.157543,-1.598538 0.376415,-2.270645 -2.235876,-1.924582 -4.296193,-5.270911 -4.828228,-9.185514 2.631733,1.724851 7.626246,4.651961 12.04668,5.184999 1.780905,-2.113789 3.095245,-6.73428 3.782957,-9.666372 0.236525,-1.013236 -0.713232,-1.848944 -1.685175,-1.530151 -2.953889,0.972568 -7.133437,0.927518 -10.83347,-1.001664 2.492235,-1.437871 7.953951,-4.894186 10.636576,-8.998085 C 41.202947,12.462659 37.767867,9.1668384 35.521865,7.2114336 34.744705,6.5352651 33.58562,7.0223032 33.422634,8.0517874 32.952108,11.040042 31.166573,14.624412 28.08046,17.111323 28.126916,13.960238 27.934898,7.9408703 26.002945,3.7578406 25.66555,3.7047918 25.300495,3.6792928 24.912795,3.6764171 Z M 24.686947,17.919415 c 1.198529,0.08427 2.362555,0.537894 3.322573,1.316604 0,0 0.0027,-0.07546 0.0029,-0.07836 1.698163,1.331192 2.541152,3.485238 2.268617,5.61516 0,0 0.07216,-0.03986 0.07529,-0.04147 -0.255558,2.346873 -1.821511,4.277455 -3.933521,5.043658 0,0 0.05867,0.04143 0.0608,0.04302 -1.966374,0.748674 -4.160178,0.372027 -5.777947,-0.940213 0,0 -0.0027,0.07688 -0.0029,0.07989 -1.699873,-1.331028 -2.542735,-3.487246 -2.270063,-5.618234 0,0 -0.0708,0.03991 -0.07383,0.04148 0.256582,-2.345501 1.822424,-4.27471 3.93352,-5.040586 0,0 -0.06003,-0.04288 -0.06224,-0.04456 0.799782,-0.304671 1.63532,-0.434152 2.456823,-0.376393 z"
     id="path1382"
     inkscape:connector-curvature="0"
     inkscape:label="elica" /></g>



































</svg>